<?xml version="1.0" encoding="utf-8"?>
<!-- Generator: Adobe Illustrator 21.0.0, SVG Export Plug-In . SVG Version: 6.00 Build 0)  -->
<svg version="1.1" id="Layer_1" xmlns="http://www.w3.org/2000/svg" xmlns:xlink="http://www.w3.org/1999/xlink" x="0px" y="0px"
	 viewBox="0 0 282 235.6" style="enable-background:new 0 0 282 235.6;" xml:space="preserve">
<style type="text/css">
	.st0{clip-path:url(#SVGID_2_);fill:url(#SVGID_3_);}
	.st1{clip-path:url(#SVGID_5_);fill:url(#SVGID_6_);}
	.st2{clip-path:url(#SVGID_8_);fill:url(#SVGID_9_);}
	.st3{clip-path:url(#SVGID_11_);fill:url(#SVGID_12_);}
	.st4{clip-path:url(#SVGID_14_);fill:url(#SVGID_15_);}
	.st5{clip-path:url(#SVGID_17_);fill:url(#SVGID_18_);}
	.st6{clip-path:url(#SVGID_20_);fill:url(#SVGID_21_);}
	.st7{clip-path:url(#SVGID_23_);fill:url(#SVGID_24_);}
	.st8{clip-path:url(#SVGID_26_);fill:url(#SVGID_27_);}
	.st9{clip-path:url(#SVGID_29_);fill:url(#SVGID_30_);}
	.st10{clip-path:url(#SVGID_32_);fill:url(#SVGID_33_);}
	.st11{clip-path:url(#SVGID_35_);fill:url(#SVGID_36_);}
	.st12{clip-path:url(#SVGID_38_);fill:url(#SVGID_39_);}
	.st13{clip-path:url(#SVGID_41_);fill:url(#SVGID_42_);}
	.st14{clip-path:url(#SVGID_44_);fill:url(#SVGID_45_);}
	.st15{clip-path:url(#SVGID_47_);fill:url(#SVGID_48_);}
	.st16{clip-path:url(#SVGID_50_);fill:url(#SVGID_51_);}
</style>
<g>
	<defs>
		<path id="SVGID_1_" d="M98.8,135.7c0,10,5.6,12.7,15.1,15.6c5,1.5,9.8,2.6,9.8,8.6c0,6.4-4.1,7.6-10.2,7.6
			c-4.1,0-9.8-0.6-13.8-1.1l-0.9,7.4c4.3,0.9,9.1,1.5,14.9,1.5c12.5,0,19.6-4.2,19.6-15.7c0-9.8-4.9-13.4-14.6-16.1
			c-6.4-1.7-10.7-2.5-10.7-8.8c0-6.1,7.5-6.3,12.1-6.3c3.9,0,8,0.5,11.4,1.1l0.8-7.2c-3.8-0.8-9.4-1.5-14.7-1.5
			C105.5,120.7,98.8,124.4,98.8,135.7"/>
	</defs>
	<clipPath id="SVGID_2_">
		<use xlink:href="#SVGID_1_"  style="overflow:visible;"/>
	</clipPath>
	
		<linearGradient id="SVGID_3_" gradientUnits="userSpaceOnUse" x1="391.2802" y1="-861.0594" x2="392.2796" y2="-861.0594" gradientTransform="matrix(-293.8452 0 0 -293.8452 115265.5391 -252870.2031)">
		<stop  offset="0" style="stop-color:#00AEEF"/>
		<stop  offset="3.710000e-02" style="stop-color:#00AEEF"/>
		<stop  offset="0.8542" style="stop-color:#7ECBB6"/>
		<stop  offset="1" style="stop-color:#7ECBB6"/>
	</linearGradient>
	<rect x="98.8" y="120.7" class="st0" width="34.6" height="54.5"/>
</g>
<g>
	<defs>
		<path id="SVGID_4_" d="M149.8,162.4c0-4.8,1.5-6.1,5.8-7.1c3.3-0.8,7.5-0.8,11.1-1v7.5c0,1.8-0.1,3.8-0.3,5.5
			c-2.6,1.2-5.9,1.4-8.5,1.4C152.6,168.7,149.8,167.5,149.8,162.4 M143,134.8l0.7,6.4c4.2-0.5,9.3-1,14.2-1c6.2,0,8.7,2.8,8.7,8.5
			c-5,0.2-10,0.4-14.5,1.1c-7.9,1.2-11,5.7-11,12.8c0,8.4,4.3,12.7,15.4,12.7c7.6,0,13.7-1,18.2-3.6c0.2-2.5,0.3-4.8,0.3-7.5v-18
			c0-10.4-7.4-12.9-16.4-12.9C152.8,133.3,147.4,134.1,143,134.8"/>
	</defs>
	<clipPath id="SVGID_5_">
		<use xlink:href="#SVGID_4_"  style="overflow:visible;"/>
	</clipPath>
	
		<linearGradient id="SVGID_6_" gradientUnits="userSpaceOnUse" x1="391.2785" y1="-861.0579" x2="392.2778" y2="-861.0579" gradientTransform="matrix(-293.8314 0 0 -293.8314 115259.4141 -252851.5781)">
		<stop  offset="0" style="stop-color:#00AEEF"/>
		<stop  offset="3.710000e-02" style="stop-color:#00AEEF"/>
		<stop  offset="0.8542" style="stop-color:#7ECBB6"/>
		<stop  offset="1" style="stop-color:#7ECBB6"/>
	</linearGradient>
	<rect x="141.2" y="133.3" class="st1" width="34" height="41.9"/>
</g>
<g>
	<defs>
		<path id="SVGID_7_" d="M194.4,167.4v-20.5c0-1.8,0.1-3.8,0.3-5.5c1.8-0.9,4.8-1.4,7.4-1.4c9.7,0,10.3,6.8,10.3,14.3
			c0,8.2-0.2,14.2-11.1,14.2C199.2,168.5,196.5,168,194.4,167.4 M186.1,136.9c-0.2,2.5-0.3,4.8-0.3,7.5v45.3h8.7v-15.6
			c2.8,0.7,6.1,1.1,8.9,1.1c12.4,0,17.8-5.2,17.8-20.9c0-16-5.6-21-19-21C196.8,133.3,190.7,134.3,186.1,136.9"/>
	</defs>
	<clipPath id="SVGID_8_">
		<use xlink:href="#SVGID_7_"  style="overflow:visible;"/>
	</clipPath>
	
		<linearGradient id="SVGID_9_" gradientUnits="userSpaceOnUse" x1="391.2809" y1="-861.0596" x2="392.2802" y2="-861.0596" gradientTransform="matrix(-293.8326 0 0 -293.8326 115260.6328 -252845.8594)">
		<stop  offset="0" style="stop-color:#00AEEF"/>
		<stop  offset="3.710000e-02" style="stop-color:#00AEEF"/>
		<stop  offset="0.8542" style="stop-color:#7ECBB6"/>
		<stop  offset="1" style="stop-color:#7ECBB6"/>
	</linearGradient>
	<rect x="185.8" y="133.3" class="st2" width="35.4" height="56.4"/>
</g>
<g>
	<defs>
		<rect id="SVGID_10_" x="230.2" y="133.9" width="8.8" height="40.8"/>
	</defs>
	<clipPath id="SVGID_11_">
		<use xlink:href="#SVGID_10_"  style="overflow:visible;"/>
	</clipPath>
	
		<linearGradient id="SVGID_12_" gradientUnits="userSpaceOnUse" x1="391.2793" y1="-861.0588" x2="392.2787" y2="-861.0588" gradientTransform="matrix(-293.8365 0 0 -293.8365 115261.8906 -252856.2031)">
		<stop  offset="0" style="stop-color:#00AEEF"/>
		<stop  offset="3.710000e-02" style="stop-color:#00AEEF"/>
		<stop  offset="0.8542" style="stop-color:#7ECBB6"/>
		<stop  offset="1" style="stop-color:#7ECBB6"/>
	</linearGradient>
	<rect x="230.2" y="133.9" class="st3" width="8.8" height="40.8"/>
</g>
<g>
	<defs>
		<path id="SVGID_13_" d="M256.6,162.4c0-4.8,1.5-6.1,5.8-7.1c3.3-0.8,7.5-0.8,11.1-1v7.5c0,1.8-0.1,3.8-0.3,5.5
			c-2.6,1.2-5.9,1.4-8.5,1.4C259.5,168.7,256.6,167.5,256.6,162.4 M249.9,134.8l0.7,6.4c4.2-0.5,9.3-1,14.2-1c6.2,0,8.7,2.8,8.7,8.5
			c-5,0.2-10,0.4-14.5,1.1c-7.9,1.2-11,5.7-11,12.8c0,8.4,4.3,12.7,15.4,12.7c7.6,0,13.7-1,18.2-3.6c0.2-2.5,0.3-4.8,0.3-7.5v-18
			c0-10.4-7.4-12.9-16.4-12.9C259.6,133.3,254.3,134.1,249.9,134.8"/>
	</defs>
	<clipPath id="SVGID_14_">
		<use xlink:href="#SVGID_13_"  style="overflow:visible;"/>
	</clipPath>
	
		<linearGradient id="SVGID_15_" gradientUnits="userSpaceOnUse" x1="391.2771" y1="-861.0571" x2="392.2764" y2="-861.0571" gradientTransform="matrix(-293.8165 0 0 -293.8165 115253.3672 -252838.5156)">
		<stop  offset="0" style="stop-color:#00AEEF"/>
		<stop  offset="3.710000e-02" style="stop-color:#00AEEF"/>
		<stop  offset="0.8542" style="stop-color:#7ECBB6"/>
		<stop  offset="1" style="stop-color:#7ECBB6"/>
	</linearGradient>
	<rect x="248" y="133.3" class="st4" width="34" height="41.9"/>
</g>
<g>
	<defs>
		<path id="SVGID_16_" d="M234.6,114.3c-3,0-5.5,2.5-5.5,5.5v0.1v0.1c0,3,2.5,5.5,5.5,5.5c3,0,5.5-2.5,5.5-5.5v-0.1v-0.1
			C240.1,116.8,237.6,114.3,234.6,114.3C234.6,114.3,234.6,114.3,234.6,114.3"/>
	</defs>
	<clipPath id="SVGID_17_">
		<use xlink:href="#SVGID_16_"  style="overflow:visible;"/>
	</clipPath>
	
		<linearGradient id="SVGID_18_" gradientUnits="userSpaceOnUse" x1="391.2926" y1="-861.0609" x2="392.292" y2="-861.0609" gradientTransform="matrix(-291.9481 0 0 -291.9481 114526.5547 -251265.1562)">
		<stop  offset="0" style="stop-color:#00AEEF"/>
		<stop  offset="3.710000e-02" style="stop-color:#00AEEF"/>
		<stop  offset="0.8542" style="stop-color:#7ECBB6"/>
		<stop  offset="1" style="stop-color:#7ECBB6"/>
	</linearGradient>
	<rect x="229.1" y="114.3" class="st5" width="11" height="11.2"/>
</g>
<g>
	<defs>
		<path id="SVGID_19_" d="M219.9,76.7v0.2c0,3.3,2.7,6.1,6.1,6.1c3.3,0,6.1-2.7,6.1-6.1v-0.2c0-3.3-2.7-6-6.1-6
			C222.6,70.7,219.8,73.4,219.9,76.7"/>
	</defs>
	<clipPath id="SVGID_20_">
		<use xlink:href="#SVGID_19_"  style="overflow:visible;"/>
	</clipPath>
	
		<linearGradient id="SVGID_21_" gradientUnits="userSpaceOnUse" x1="391.2935" y1="-861.0615" x2="392.2929" y2="-861.0615" gradientTransform="matrix(-291.8371 0 0 -291.8371 114483.3828 -251212.8906)">
		<stop  offset="0" style="stop-color:#00AEEF"/>
		<stop  offset="3.710000e-02" style="stop-color:#00AEEF"/>
		<stop  offset="0.8542" style="stop-color:#7ECBB6"/>
		<stop  offset="1" style="stop-color:#7ECBB6"/>
	</linearGradient>
	<rect x="219.8" y="70.7" class="st6" width="12.1" height="12.3"/>
</g>
<g>
	<defs>
		<path id="SVGID_22_" d="M194.8,40.4v0.2c0,3.6,3,6.6,6.6,6.6c3.6,0,6.6-3,6.6-6.6v-0.2c0-3.6-3-6.6-6.6-6.6
			C197.8,33.8,194.8,36.7,194.8,40.4"/>
	</defs>
	<clipPath id="SVGID_23_">
		<use xlink:href="#SVGID_22_"  style="overflow:visible;"/>
	</clipPath>
	
		<linearGradient id="SVGID_24_" gradientUnits="userSpaceOnUse" x1="391.296" y1="-861.063" x2="392.2953" y2="-861.063" gradientTransform="matrix(-291.8306 0 0 -291.8306 114481.3516 -251244.0469)">
		<stop  offset="0" style="stop-color:#00AEEF"/>
		<stop  offset="3.710000e-02" style="stop-color:#00AEEF"/>
		<stop  offset="0.8542" style="stop-color:#7ECBB6"/>
		<stop  offset="1" style="stop-color:#7ECBB6"/>
	</linearGradient>
	<rect x="194.8" y="33.8" class="st7" width="13.2" height="13.4"/>
</g>
<g>
	<defs>
		<path id="SVGID_25_" d="M157.8,16.1v0.2c0,4,3.2,7.2,7.2,7.2c4,0,7.2-3.2,7.2-7.2v-0.2c0-3.9-3.2-7.1-7.2-7.1
			C161,9,157.8,12.2,157.8,16.1"/>
	</defs>
	<clipPath id="SVGID_26_">
		<use xlink:href="#SVGID_25_"  style="overflow:visible;"/>
	</clipPath>
	
		<linearGradient id="SVGID_27_" gradientUnits="userSpaceOnUse" x1="391.2935" y1="-861.0627" x2="392.2928" y2="-861.0627" gradientTransform="matrix(-291.9045 0 0 -291.9045 114509.8516 -251331.875)">
		<stop  offset="0" style="stop-color:#00AEEF"/>
		<stop  offset="3.710000e-02" style="stop-color:#00AEEF"/>
		<stop  offset="0.8542" style="stop-color:#7ECBB6"/>
		<stop  offset="1" style="stop-color:#7ECBB6"/>
	</linearGradient>
	<rect x="157.8" y="9" class="st8" width="14.3" height="14.5"/>
</g>
<g>
	<defs>
		<path id="SVGID_28_" d="M114.2,7.7v0.2c0,4.3,3.5,7.7,7.7,7.7c4.3,0,7.7-3.5,7.7-7.7V7.7c0-4.2-3.5-7.7-7.7-7.7
			C117.7,0,114.2,3.5,114.2,7.7"/>
	</defs>
	<clipPath id="SVGID_29_">
		<use xlink:href="#SVGID_28_"  style="overflow:visible;"/>
	</clipPath>
	
		<linearGradient id="SVGID_30_" gradientUnits="userSpaceOnUse" x1="391.2946" y1="-861.0623" x2="392.2939" y2="-861.0623" gradientTransform="matrix(-291.885 0 0 -291.885 114502.5156 -251323.375)">
		<stop  offset="0" style="stop-color:#00AEEF"/>
		<stop  offset="3.710000e-02" style="stop-color:#00AEEF"/>
		<stop  offset="0.8542" style="stop-color:#7ECBB6"/>
		<stop  offset="1" style="stop-color:#7ECBB6"/>
	</linearGradient>
	<rect x="114.2" class="st9" width="15.4" height="15.6"/>
</g>
<g>
	<defs>
		<path id="SVGID_31_" d="M70.7,16.4v0.2c0,4.6,3.7,8.3,8.3,8.3c4.6,0,8.3-3.7,8.3-8.3v-0.2c0-4.5-3.7-8.2-8.3-8.2
			C74.4,8.1,70.7,11.8,70.7,16.4"/>
	</defs>
	<clipPath id="SVGID_32_">
		<use xlink:href="#SVGID_31_"  style="overflow:visible;"/>
	</clipPath>
	
		<linearGradient id="SVGID_33_" gradientUnits="userSpaceOnUse" x1="391.2923" y1="-861.0602" x2="392.2916" y2="-861.0602" gradientTransform="matrix(-291.8668 0 0 -291.8668 114494.6797 -251298.4375)">
		<stop  offset="0" style="stop-color:#00AEEF"/>
		<stop  offset="3.710000e-02" style="stop-color:#00AEEF"/>
		<stop  offset="0.8542" style="stop-color:#7ECBB6"/>
		<stop  offset="1" style="stop-color:#7ECBB6"/>
	</linearGradient>
	<rect x="70.7" y="8.1" class="st10" width="16.6" height="16.7"/>
</g>
<g>
	<defs>
		<path id="SVGID_34_" d="M36.4,34.6c-1.7,1.7-2.6,3.9-2.6,6.2V41c0,4.9,4,8.8,8.8,8.8c4.9,0,8.8-4,8.8-8.8v-0.2
			c0-4.8-4-8.8-8.9-8.8C40.3,32,38.1,32.9,36.4,34.6"/>
	</defs>
	<clipPath id="SVGID_35_">
		<use xlink:href="#SVGID_34_"  style="overflow:visible;"/>
	</clipPath>
	
		<linearGradient id="SVGID_36_" gradientUnits="userSpaceOnUse" x1="391.2953" y1="-861.0626" x2="392.2946" y2="-861.0626" gradientTransform="matrix(-291.8598 0 0 -291.8598 114492.7109 -251268.6719)">
		<stop  offset="0" style="stop-color:#00AEEF"/>
		<stop  offset="3.710000e-02" style="stop-color:#00AEEF"/>
		<stop  offset="0.8542" style="stop-color:#7ECBB6"/>
		<stop  offset="1" style="stop-color:#7ECBB6"/>
	</linearGradient>
	<rect x="33.8" y="32" class="st11" width="17.7" height="17.8"/>
</g>
<g>
	<defs>
		<path id="SVGID_37_" d="M11.7,70.7C10,72.4,9,74.8,9,77.3v0.2c0,5.2,4.2,9.4,9.4,9.4c5.2,0,9.4-4.2,9.4-9.4v-0.2
			c0-5.1-4.2-9.3-9.4-9.3C15.8,67.9,13.5,68.9,11.7,70.7"/>
	</defs>
	<clipPath id="SVGID_38_">
		<use xlink:href="#SVGID_37_"  style="overflow:visible;"/>
	</clipPath>
	
		<linearGradient id="SVGID_39_" gradientUnits="userSpaceOnUse" x1="391.2937" y1="-861.0616" x2="392.2931" y2="-861.0616" gradientTransform="matrix(-291.8761 0 0 -291.8761 114498.8047 -251245.9531)">
		<stop  offset="0" style="stop-color:#00AEEF"/>
		<stop  offset="3.710000e-02" style="stop-color:#00AEEF"/>
		<stop  offset="0.8542" style="stop-color:#7ECBB6"/>
		<stop  offset="1" style="stop-color:#7ECBB6"/>
	</linearGradient>
	<rect x="9" y="67.9" class="st12" width="18.8" height="18.9"/>
</g>
<g>
	<defs>
		<path id="SVGID_40_" d="M2.9,113.3c-1.9,1.9-2.9,4.4-2.9,7v0.2c0,5.5,4.5,9.9,9.9,9.9c5.5,0,9.9-4.5,9.9-9.9v-0.2
			c0-5.4-4.5-9.8-10-9.8C7.3,110.3,4.8,111.4,2.9,113.3"/>
	</defs>
	<clipPath id="SVGID_41_">
		<use xlink:href="#SVGID_40_"  style="overflow:visible;"/>
	</clipPath>
	
		<linearGradient id="SVGID_42_" gradientUnits="userSpaceOnUse" x1="391.2934" y1="-861.0616" x2="392.2928" y2="-861.0616" gradientTransform="matrix(-291.8477 0 0 -291.8477 114487.75 -251178.5)">
		<stop  offset="0" style="stop-color:#00AEEF"/>
		<stop  offset="3.710000e-02" style="stop-color:#00AEEF"/>
		<stop  offset="0.8542" style="stop-color:#7ECBB6"/>
		<stop  offset="1" style="stop-color:#7ECBB6"/>
	</linearGradient>
	<rect x="0" y="110.3" class="st13" width="19.9" height="20"/>
</g>
<g>
	<defs>
		<path id="SVGID_43_" d="M11.1,155.8c-2,2-3.1,4.6-3.1,7.4v0.2c0,5.8,4.7,10.5,10.5,10.5c5.8,0,10.5-4.7,10.5-10.5v-0.2
			c0-5.8-4.7-10.4-10.5-10.4C15.7,152.7,13.1,153.8,11.1,155.8"/>
	</defs>
	<clipPath id="SVGID_44_">
		<use xlink:href="#SVGID_43_"  style="overflow:visible;"/>
	</clipPath>
	
		<linearGradient id="SVGID_45_" gradientUnits="userSpaceOnUse" x1="391.2939" y1="-861.063" x2="392.2932" y2="-861.063" gradientTransform="matrix(-291.8577 0 0 -291.8577 114491.6406 -251144.6094)">
		<stop  offset="0" style="stop-color:#00AEEF"/>
		<stop  offset="3.710000e-02" style="stop-color:#00AEEF"/>
		<stop  offset="0.8542" style="stop-color:#7ECBB6"/>
		<stop  offset="1" style="stop-color:#7ECBB6"/>
	</linearGradient>
	<rect x="8" y="152.7" class="st14" width="21" height="21.1"/>
</g>
<g>
	<defs>
		<path id="SVGID_46_" d="M35.1,191.7c-2.1,2.1-3.2,4.9-3.2,7.8v0.2c0,6.1,4.9,11,11,11c6.1,0,11-4.9,11-11v-0.2c0-6.1-5-11-11.1-11
			C40,188.5,37.2,189.7,35.1,191.7"/>
	</defs>
	<clipPath id="SVGID_47_">
		<use xlink:href="#SVGID_46_"  style="overflow:visible;"/>
	</clipPath>
	
		<linearGradient id="SVGID_48_" gradientUnits="userSpaceOnUse" x1="391.2932" y1="-861.0617" x2="392.2926" y2="-861.0617" gradientTransform="matrix(-291.8721 0 0 -291.8721 114497 -251120.2656)">
		<stop  offset="0" style="stop-color:#00AEEF"/>
		<stop  offset="3.710000e-02" style="stop-color:#00AEEF"/>
		<stop  offset="0.8542" style="stop-color:#7ECBB6"/>
		<stop  offset="1" style="stop-color:#7ECBB6"/>
	</linearGradient>
	<rect x="31.9" y="188.5" class="st15" width="22.1" height="22.2"/>
</g>
<g>
	<defs>
		<path id="SVGID_49_" d="M71.2,215.7c-2.2,2.2-3.4,5.1-3.4,8.2v0.2c0,6.4,5.2,11.6,11.6,11.6c6.4,0,11.6-5.2,11.6-11.6v-0.2
			c0-6.4-5.2-11.5-11.6-11.5C76.2,212.3,73.3,213.5,71.2,215.7"/>
	</defs>
	<clipPath id="SVGID_50_">
		<use xlink:href="#SVGID_49_"  style="overflow:visible;"/>
	</clipPath>
	
		<linearGradient id="SVGID_51_" gradientUnits="userSpaceOnUse" x1="391.2939" y1="-861.0612" x2="392.2933" y2="-861.0612" gradientTransform="matrix(-291.848 0 0 -291.848 114487.6172 -251075.0312)">
		<stop  offset="0" style="stop-color:#00AEEF"/>
		<stop  offset="3.710000e-02" style="stop-color:#00AEEF"/>
		<stop  offset="0.8542" style="stop-color:#7ECBB6"/>
		<stop  offset="1" style="stop-color:#7ECBB6"/>
	</linearGradient>
	<rect x="67.8" y="212.3" class="st16" width="23.2" height="23.4"/>
</g>
</svg>
